HIERARCHY
ROOT joint_Root
{
	OFFSET 0.0 0.0 0.0
	CHANNELS 6 Xposition Yposition Zposition Zrotation Xrotation Yrotation 
	JOINT Hips
	{
		OFFSET -17.1583 93.1646 452.98
		CHANNELS 6 Xposition Yposition Zposition Zrotation Xrotation Yrotation 
		JOINT Spine
		{
			OFFSET 15.7357 0.0 0.0
			CHANNELS 6 Xposition Yposition Zposition Zrotation Xrotation Yrotation 
			JOINT Chest
			{
				OFFSET 8.98455 -0.406207 0.0
				CHANNELS 6 Xposition Yposition Zposition Zrotation Xrotation Yrotation 
				JOINT Neck
				{
					OFFSET 16.3773 0.0 0.0
					CHANNELS 6 Xposition Yposition Zposition Zrotation Xrotation Yrotation 
					JOINT Head
					{
						OFFSET 6.45672 0.0 0.0
						CHANNELS 6 Xposition Yposition Zposition Zrotation Xrotation Yrotation 
						End Site
						{
							OFFSET 0.0 0.0 0.0
						}
					}
				}
				JOINT Shoulder_L
				{
					OFFSET 12.9942 -0.242716 4.98039
					CHANNELS 6 Xposition Yposition Zposition Zrotation Xrotation Yrotation 
					JOINT UpperArm_L
					{
						OFFSET 5.34809 0.0 0.0
						CHANNELS 6 Xposition Yposition Zposition Zrotation Xrotation Yrotation 
						JOINT LowerArm_L
						{
							OFFSET 24.3286 1.87007e-05 0.0
							CHANNELS 6 Xposition Yposition Zposition Zrotation Xrotation Yrotation 
							JOINT Hand_L
							{
								OFFSET 22.2916 0.0 0.0
								CHANNELS 6 Xposition Yposition Zposition Zrotation Xrotation Yrotation 
								End Site
								{
									OFFSET 0.0 0.0 0.0
								}
							}
						}
					}
				}
				JOINT Shoulder_R
				{
					OFFSET 12.9945 -0.242716 -4.98039
					CHANNELS 6 Xposition Yposition Zposition Zrotation Xrotation Yrotation 
					JOINT UpperArm_R
					{
						OFFSET -5.34813 0.0 0.0
						CHANNELS 6 Xposition Yposition Zposition Zrotation Xrotation Yrotation 
						JOINT LowerArm_R
						{
							OFFSET -24.3289 0.000322201 0.0
							CHANNELS 6 Xposition Yposition Zposition Zrotation Xrotation Yrotation 
							JOINT Hand_R
							{
								OFFSET -22.2915 -0.000108084 0.0
								CHANNELS 6 Xposition Yposition Zposition Zrotation Xrotation Yrotation 
								End Site
								{
									OFFSET 0.0 0.0 0.0
								}
							}
						}
					}
				}
			}
		}
		JOINT UpperLeg_L
		{
			OFFSET -2.19248 -6.46944 0.0
			CHANNELS 6 Xposition Yposition Zposition Zrotation Xrotation Yrotation 
			JOINT LowerLeg_L
			{
				OFFSET 39.0811 0.0 -1.23785e-05
				CHANNELS 6 Xposition Yposition Zposition Zrotation Xrotation Yrotation 
				JOINT Foot_L
				{
					OFFSET 40.9854 0.0 -1.26872e-05
					CHANNELS 6 Xposition Yposition Zposition Zrotation Xrotation Yrotation 
					JOINT Toes_L
					{
						OFFSET 11.7543 0.0 0.0
						CHANNELS 6 Xposition Yposition Zposition Zrotation Xrotation Yrotation 
						End Site
						{
							OFFSET 0.0 0.0 0.0
						}
					}
				}
			}
		}
		JOINT UpperLeg_R
		{
			OFFSET -2.19251 6.46944 0.0
			CHANNELS 6 Xposition Yposition Zposition Zrotation Xrotation Yrotation 
			JOINT LowerLeg_R
			{
				OFFSET -39.0811 -0.00228153 -0.0401928
				CHANNELS 6 Xposition Yposition Zposition Zrotation Xrotation Yrotation 
				JOINT Foot_R
				{
					OFFSET -40.9854 0.0 0.0
					CHANNELS 6 Xposition Yposition Zposition Zrotation Xrotation Yrotation 
					JOINT Toes_R
					{
						OFFSET -11.7543 0.0 0.0
						CHANNELS 6 Xposition Yposition Zposition Zrotation Xrotation Yrotation 
						End Site
						{
							OFFSET 0.0 0.0 0.0
						}
					}
				}
			}
		}
	}
}
MOTION
Frames:	4
Frame Time:	0.0333333
0.000000 0.000000 0.000000 0.000000 0.000000 -0.000000 -2.666390 91.372700 -0.927832 80.437700 -2.823610 4.758550 15.735700 0.000005 -0.000001 70.215300 87.055700 -65.709000 8.984550 -0.406207 -0.000000 -2.116060 -2.380740 8.968620 16.377300 -0.000001 -0.000001 14.663100 3.355530 9.680750 6.456720 -0.000001 -0.000000 5.096440 5.681560 8.738820 12.994200 -0.242716 4.980390 -91.598100 4.514170 -70.481600 5.348090 -0.000007 -0.000001 -76.422700 -10.673700 -1.127810 24.328600 0.000019 0.000005 42.693600 -43.557200 -126.757000 22.291600 -0.000001 0.000005 55.161900 4.977120 7.801910 12.994500 -0.242716 -4.980390 87.886700 6.050830 -70.706500 -5.348130 -0.000001 -0.000004 -70.080500 -4.502690 -7.032030 -24.328900 0.000322 -0.000009 18.307600 -21.566300 -138.008000 -22.291500 -0.000108 -0.000004 63.828600 5.666360 -16.853100 -2.192480 -6.469440 -0.000000 -168.782000 2.384460 -5.304160 39.081100 -0.000007 -0.000012 0.541036 -0.821061 33.384400 40.985400 -0.000006 -0.000013 0.800666 5.807590 -78.751100 11.754300 -0.000000 0.000003 0.000157 0.164938 -9.887160 -2.192510 6.469440 -0.000001 -167.455000 7.967770 -176.770000 -39.081100 -0.002282 -0.040193 0.142575 -0.439506 17.580000 -40.985400 0.000008 0.000006 4.858990 1.714410 -71.533000 -11.754300 -0.000006 -0.000006 -0.010093 0.272000 -5.522560
0.000000 0.000000 0.000000 0.000000 0.000000 -0.000000 -2.694550 91.383900 -0.934515 80.462500 -2.816000 4.779360 15.735700 0.000005 -0.000001 70.362800 87.041300 -65.881500 8.984550 -0.406207 -0.000000 -2.084800 -2.372780 8.919400 16.377300 -0.000001 -0.000001 14.646100 3.345580 9.682750 6.456720 -0.000001 -0.000000 5.104180 5.662890 8.739820 12.994200 -0.242716 4.980390 -91.598600 4.500560 -70.421900 5.348090 -0.000007 -0.000001 -76.523700 -10.613500 -1.157060 24.328600 0.000019 0.000005 42.422500 -43.390700 -126.933000 22.291600 -0.000001 0.000005 55.119900 4.978430 7.774490 12.994500 -0.242716 -4.980390 87.900200 6.018380 -70.725900 -5.348130 -0.000001 -0.000004 -70.085300 -4.516740 -7.073500 -24.328900 0.000322 -0.000009 18.315800 -21.577200 -138.008000 -22.291500 -0.000108 -0.000004 63.752500 5.666760 -16.907900 -2.192480 -6.469440 -0.000000 -168.789000 2.364330 -5.251170 39.081100 -0.000007 -0.000012 0.550157 -0.836709 33.327600 40.985400 -0.000006 -0.000013 0.788603 5.852700 -78.825000 11.754300 -0.000000 0.000003 0.000117 0.165630 -9.859050 -2.192510 6.469440 -0.000001 -167.463000 7.982740 -176.709000 -39.081100 -0.002282 -0.040193 0.140324 -0.434608 17.496200 -40.985400 0.000008 0.000006 4.871690 1.690630 -71.535900 -11.754300 -0.000006 -0.000006 -0.010349 0.273897 -5.444970
0.000000 0.000000 0.000000 0.000000 0.000000 -0.000000 -2.712140 91.385500 -0.942763 80.485300 -2.807100 4.763030 15.735700 0.000005 -0.000001 70.580600 87.041600 -66.119500 8.984550 -0.406207 -0.000000 -2.079300 -2.349450 8.879410 16.377300 -0.000001 -0.000001 14.622900 3.312590 9.671510 6.456720 -0.000001 -0.000000 5.133500 5.602190 8.702360 12.994200 -0.242716 4.980390 -91.605800 4.530970 -70.461900 5.348090 -0.000007 -0.000001 -76.588900 -10.788600 -1.232410 24.328600 0.000019 0.000005 42.457000 -43.423400 -126.917000 22.291600 -0.000001 0.000005 55.257300 4.980590 7.729190 12.994500 -0.242716 -4.980390 87.909600 5.982750 -70.700100 -5.348130 -0.000001 -0.000004 -70.092500 -4.531390 -7.114060 -24.328900 0.000322 -0.000009 18.364300 -21.628100 -137.991000 -22.291500 -0.000108 -0.000004 63.782900 5.666470 -16.867700 -2.192480 -6.469440 -0.000000 -168.783000 2.284400 -5.270050 39.081100 -0.000007 -0.000012 0.546159 -0.831365 33.304300 40.985400 -0.000006 -0.000013 0.798082 5.924020 -78.757100 11.754300 -0.000000 0.000003 0.000146 0.165126 -9.879520 -2.192510 6.469440 -0.000001 -167.437000 7.821640 -176.737000 -39.081100 -0.002282 -0.040193 0.141369 -0.437981 17.494000 -40.985400 0.000008 0.000006 4.864340 1.550510 -71.491600 -11.754300 -0.000006 -0.000006 -0.010171 0.272575 -5.499040
0.000000 0.000000 0.000000 0.000000 0.000000 -0.000000 -2.718480 91.389600 -0.962099 80.529200 -2.789500 4.737530 15.735700 0.000005 -0.000001 70.563100 87.045700 -66.124200 8.984550 -0.406207 -0.000000 -2.088390 -2.346860 8.835040 16.377300 -0.000001 -0.000001 14.681800 3.292350 9.618790 6.456720 -0.000001 -0.000000 5.107540 5.557870 8.694770 12.994200 -0.242716 4.980390 -91.607200 4.527800 -70.434100 5.348090 -0.000007 -0.000001 -76.649800 -10.819800 -1.278940 24.328600 0.000019 0.000005 42.393900 -43.399200 -126.965000 22.291600 -0.000001 0.000005 55.280500 4.981610 7.707970 12.994500 -0.242716 -4.980390 87.907300 5.978320 -70.667100 -5.348130 -0.000001 -0.000004 -70.077200 -4.541640 -7.194950 -24.328900 0.000322 -0.000009 18.218500 -21.489700 -138.061000 -22.291500 -0.000108 -0.000004 63.831000 5.667570 -17.021300 -2.192480 -6.469440 -0.000000 -168.797000 2.213100 -5.296940 39.081100 -0.000007 -0.000012 0.539369 -0.822325 33.262800 40.985400 -0.000006 -0.000013 0.821075 6.030120 -78.684800 11.754300 -0.000000 0.000003 0.000184 0.164459 -9.906600 -2.192510 6.469440 -0.000001 -167.465000 7.787980 -176.795000 -39.081100 -0.002282 -0.040193 0.142295 -0.440176 17.521800 -40.985400 0.000008 0.000006 4.865230 1.523410 -71.491600 -11.754300 -0.000006 -0.000006 -0.010273 0.273333 -5.468020
